<?xml version="1.0" encoding="UTF-8"?>
<svg id="Layer_2" data-name="Layer 2" xmlns="http://www.w3.org/2000/svg" viewBox="0 0 58.89538574 69.34997559">
  <defs>
    <style>
      .cls-1 {
        fill: #be052b;
      }
    </style>
  </defs>
  <g id="Layer_1-2" data-name="Layer 1">
    <g>
      <path class="cls-1" d="M45.00402832,11.55712891c4.63037109-2.43127441,9.26098633-4.86248779,13.89135742-7.29370117-.12084961-.45513916-.28686523-.92114258-.49951172-1.34375-.90380859-1.79888916-2.12304688-1.95056152-2.46801758-1.97229004-4.66772461-.04449463-9.33544922-.08898926-14.0032959-.13348389.20617676,1.59692383.54309082,3.40863037,1.09216309,5.35754395.58630371,2.08105469,1.29101562,3.88006592,1.98730469,5.38568115Z"/>
      <path class="cls-1" d="M32.56994629,60.7199707c.02001953-.27001953.05004883-.53997803.10009766-.79998779.14990234-.89001465.43994141-1.72998047.82995605-2.51000977.29992676-.59997559.66003418-1.16998291,1.08996582-1.69000244.02001953-.02001953.0300293-.03997803.05004883-.05999756.18994141-.22998047.38989258-.45001221.60998535-.65997314.30993652-.32000732.65002441-.61004639,1.01000977-.86999512.11999512-.10003662.23999023-.19000244.36999512-.27001953.14001465-.09997559.29003906-.19000244.43994141-.27001953,1.37011719-.80999756,2.95996094-1.2699585,4.66003418-1.2699585.72009277,0,1.43005371.07995605,2.09997559.23999023l1.16003418-36.21002197c-2.81994629-5.58996582-4.65002441-11.08996582-5.46008301-16.34997559h-18.93994141c-1.91992188,0-3.36999512.60998535-4.42993164,1.88995361-2.60009766,3.14001465-2.0300293,9.24005127-1.7800293,11.18005371l20.88000488,5.36999512-4.13000488,35.19000244-.16003418,1.36999512H13.92004395c-3.7800293.05999756-7.20007324,1.0199585-9.69006348,2.57995605-.36999512.22003174-.70996094.46002197-1.02990723.70001221-.88012695.67999268-1.60009766,1.44000244-2.13012695,2.26000977-.64990234,1.01000977-1,2.09997559-1,3.23999023,0,.27001953-.0300293.52001953-.06994629.7800293h.75c.17004395,2.67999268,2.40002441,4.78997803,5.11999512,4.78997803s4.94995117-2.10998535,5.11999512-4.78997803h21.70007324c-.11010742-.54003906-.16015625-1.11004639-.16015625-1.67999268,0-.2300415.01000977-.46002197.0300293-.69000244-.02001953-.2300415-.0300293-.45001221-.0300293-.67999268,0-.25.01000977-.5.0300293-.75,0-.02001953,0-.0300293.01000977-.04003906Z"/>
      <path class="cls-1" d="M43.78991699,53.9699707c-.60986328-.15997314-1.26000977-.23999023-1.92993164-.23999023-.19995117,0-.39001465.01000977-.58007812.02001953-.4699707.03997803-.92993164.10998535-1.36987305.22998047-.85009766.21002197-1.65002441.58001709-2.37011719,1.04998779-.28991699.20001221-.56994629.41003418-.82983398.65002441-.31005859.2699585-.60009766.55999756-.86010742.88000488-.01000977.0199585-.0300293.02996826-.04003906.04998779-.34985352.44000244-.66992188.91998291-.91992188,1.42999268-.42993164.84002686-.69995117,1.77001953-.7800293,2.76000977-.01000977.01000977-.01000977.02996826-.01000977.03997803-.01000977.01000977-.01000977.02001953-.01000977.04003906v.14996338c-.01000977.16003418-.02001953.32000732-.02001953.4800415,0,2.28997803.97998047,4.34997559,2.55004883,5.77996826,1.38000488,1.25,3.2199707,2.02001953,5.23999023,2.02001953,3.59008789,0,6.60009766-2.42004395,7.51000977-5.71002197.18994141-.66998291.2800293-1.36999512.2800293-2.08996582v-.11004639c-.0300293-1.75-.62011719-3.36999512-1.63000488-4.65997314-1.05004883-1.34002686-2.52001953-2.34002686-4.23010254-2.77001953Z"/>
    </g>
  </g>
</svg>